<svg width="393" height="246" viewBox="0 0 393 246" fill="none" xmlns="http://www.w3.org/2000/svg">
    <g clip-path="url(#clip0_17_1252)">
        <path d="M148.736 73.9023C142.295 73.4489 135.862 72.8769 129.437 72.2186C126.224 71.8941 123.013 71.5452 119.804 71.1717C116.597 70.7848 113.393 70.3704 110.191 69.941C97.3869 68.203 84.6131 66.1335 71.9632 63.3762C65.6365 62.0095 59.334 60.5081 53.08 58.7868C46.8316 57.052 40.6051 55.1667 34.5328 52.7714C31.4922 51.5896 28.4866 50.2844 25.5614 48.7791C22.6416 47.2661 19.7648 45.603 17.1406 43.477C15.8332 42.4122 14.5846 41.2293 13.5164 39.8321C12.4588 38.4515 11.5563 36.7725 11.3593 34.8699C11.2528 33.9305 11.3378 32.9551 11.6175 32.0615C11.7264 31.6018 11.9406 31.1893 12.1199 30.7664C12.3461 30.3728 12.5506 29.9615 12.8235 29.6107C13.8548 28.1483 15.1726 27.0266 16.5495 26.0814C19.3219 24.1984 22.3433 22.9099 25.3888 21.7801C28.4536 20.6988 31.5507 19.7523 34.6871 18.9685C37.8239 18.1925 40.9694 17.4669 44.1356 16.8453C47.3015 16.2236 50.4795 15.677 53.6559 15.1172C60.0089 14.0023 66.3797 12.9452 72.7736 11.9672C79.1663 10.9807 85.5956 10.2264 92.0419 9.74619C104.941 8.89228 117.864 8.5557 130.783 8.50784C143.702 8.47615 156.621 8.75561 169.524 9.38472C182.426 10.0105 195.317 10.9126 208.183 12.146C221.045 13.4071 233.876 15.0299 246.657 17.0269C259.438 19.0264 272.164 21.4725 284.75 24.6386C291.043 26.2175 297.301 27.9831 303.485 30.0567C306.577 31.0959 309.649 32.2146 312.685 33.4671C315.72 34.7223 318.726 36.0843 321.65 37.7061C324.57 39.3093 327.405 41.2783 329.685 44.0045C330.81 45.3622 331.796 46.9478 332.287 48.7718C332.821 50.5761 332.59 52.6158 331.775 54.1918C331.367 54.9851 330.848 55.6819 330.291 56.3193C329.705 56.931 329.11 57.5146 328.454 58.0179C327.177 59.0645 325.782 59.9137 324.378 60.7309C321.548 62.3349 318.571 63.633 315.575 64.9034C309.562 67.3841 303.358 69.5682 297.003 70.9784C293.828 71.6987 290.62 72.2209 287.414 72.7257C284.206 73.2252 280.993 73.6701 277.776 74.0717C264.906 75.6634 251.978 76.5131 239.052 76.9137C226.125 77.279 213.193 77.2057 200.289 76.5888L200.366 72.8398C213.221 72.7463 226.063 72.5815 238.886 72.0661C251.707 71.5752 264.511 70.7714 277.24 69.4257C280.422 69.0891 283.597 68.7096 286.763 68.2773C289.93 67.8503 293.08 67.3324 296.237 66.873L300.976 66.1853C302.56 65.9709 304.14 65.7331 305.72 65.4839C308.878 64.9871 312.042 64.4365 315.132 63.6007C318.225 62.7876 321.265 61.708 324.065 60.1711C325.463 59.4096 326.798 58.5121 327.94 57.4286C328.51 56.8853 329.025 56.2954 329.463 55.6649C329.887 55.0263 330.226 54.3472 330.435 53.6513C330.835 52.244 330.626 50.8335 329.955 49.6468C329.31 48.443 328.284 47.4191 327.151 46.4963C326.017 45.5728 324.773 44.7314 323.482 43.9366C322.202 43.1252 320.855 42.3736 319.499 41.6275C316.776 40.1463 313.895 38.8685 310.969 37.6886C308.04 36.5095 305.047 35.449 302.025 34.4624C295.976 32.4931 289.812 30.8102 283.597 29.3092C277.383 27.8048 271.117 26.4798 264.824 25.2803C258.531 24.0763 252.216 22.9642 245.88 21.9691C233.207 19.9801 220.463 18.3965 207.688 17.1049C194.917 15.7717 182.107 14.7661 169.281 14.0356C143.632 12.5983 117.902 12.1657 92.2499 13.4071C79.4378 13.9806 66.5173 13.9696 53.7669 15.8173C50.5817 16.2653 47.4157 16.8419 44.2693 17.5018C41.1239 18.163 37.9877 18.8779 34.9043 19.7732C31.8195 20.6564 28.7652 21.6509 25.8174 22.8803C22.8902 24.1269 19.9943 25.5299 17.5428 27.439C16.3209 28.3833 15.2195 29.4688 14.4647 30.6952C14.2559 30.9928 14.1277 31.3197 13.9656 31.6306C13.8573 31.957 13.7056 32.2727 13.6553 32.6053C13.4909 33.2592 13.477 33.9275 13.5917 34.5803C13.8039 35.8897 14.5353 37.142 15.4932 38.2449C16.4498 39.3553 17.6115 40.3443 18.8556 41.2394C23.9174 44.7774 29.8698 47.1884 35.8078 49.3897C47.7841 53.694 60.2594 56.7823 72.8076 59.3602C97.9437 64.461 123.465 67.7268 149.047 70.1648L148.736 73.9023Z" fill="white"/>
        <path d="M123.339 230.48C117.47 230.142 112.023 227.401 108.221 222.803L106.783 221.064C105.683 219.733 105.87 217.764 107.199 216.664C108.53 215.564 110.499 215.751 111.599 217.081L113.037 218.82C115.976 222.372 120.299 224.352 124.916 224.261L236.669 223.013C238.416 223.001 239.81 224.378 239.829 226.103C239.848 227.829 238.465 229.244 236.739 229.263L125.015 230.51C124.453 230.522 123.894 230.511 123.339 230.48Z" fill="#212121"/>
        <path d="M53.815 209.64C47.9465 209.303 42.5002 206.561 38.6981 201.963L37.2598 200.225C36.1599 198.895 36.3463 196.925 37.6764 195.825C39.0056 194.725 40.9758 194.911 42.0763 196.241L43.5145 197.98C46.4528 201.534 50.7854 203.516 55.3924 203.422L167.146 202.174C168.888 202.156 170.287 203.539 170.306 205.264C170.326 206.99 168.942 208.404 167.216 208.424L55.4919 209.671C54.9301 209.682 54.3708 209.672 53.815 209.64Z" fill="#212121"/>
        <path d="M135.948 230.275C135.039 230.223 134.161 229.776 133.588 228.98C130.968 225.337 130.757 219.665 130.513 213.097C130.163 203.684 129.767 193.016 122.732 185.493C121.553 184.232 121.62 182.255 122.88 181.076C124.141 179.898 126.119 179.963 127.297 181.224C135.927 190.452 136.388 202.879 136.759 212.865C136.956 218.19 137.143 223.219 138.662 225.33C139.669 226.731 139.351 228.684 137.949 229.692C137.345 230.127 136.637 230.314 135.948 230.275Z" fill="#212121"/>
        <path d="M223.17 229.407C222.248 229.354 221.359 228.896 220.788 228.081C216.751 222.323 216.348 216.243 215.922 209.805C215.445 202.58 214.95 195.108 209.164 186.765C208.181 185.347 208.533 183.4 209.952 182.417C211.371 181.433 213.317 181.786 214.3 183.204C221.072 192.969 221.649 201.694 222.159 209.393C222.541 215.173 222.872 220.166 225.906 224.493C226.896 225.906 226.554 227.855 225.141 228.846C224.542 229.266 223.847 229.446 223.17 229.407Z" fill="#212121"/>
        <path d="M52.3372 209.485C51.6834 209.447 51.0364 209.204 50.4984 208.748C49.1815 207.632 49.019 205.66 50.1351 204.344C52.9497 201.023 55.27 196.347 57.5142 191.824C61.7606 183.266 66.151 174.417 74.745 172.572C76.4318 172.21 78.0934 173.284 78.4563 174.972C78.8185 176.659 77.7443 178.321 76.0569 178.683C70.4099 179.895 66.8658 187.039 63.113 194.602C60.7028 199.46 58.2097 204.484 54.9026 208.385C54.2428 209.164 53.2835 209.539 52.3372 209.485Z" fill="#212121"/>
        <path d="M144.534 208.67C144.214 208.652 143.892 208.584 143.577 208.461C141.969 207.834 141.174 206.023 141.801 204.415C144.392 197.767 145.107 191.472 143.985 185.172C143.683 183.473 144.815 181.85 146.514 181.548C148.212 181.246 149.835 182.378 150.138 184.077C151.467 191.541 150.644 198.935 147.624 206.685C147.12 207.978 145.849 208.746 144.534 208.67Z" fill="#212121"/>
        <path d="M365.02 146.553L361.004 156.533L348.815 156.421L315.04 156.109L300.793 155.979L292.684 155.902L272.092 155.715L265.284 155.649C257.995 155.581 250.894 157.69 244.876 161.639C243.101 162.795 241.416 164.119 239.854 165.595L230.244 174.64C220.403 183.897 207.194 188.704 193.703 187.929L104.681 182.816C96.295 182.335 88.0199 180.683 80.0897 177.93C41.7588 164.616 29.8891 153.718 33.6136 144.241C35.9375 138.333 44.3273 132.974 56.148 127.937C60.1527 126.226 63.6348 123.478 66.1733 119.936L84.3431 94.6052C86.4867 91.617 89.3127 89.2814 92.5312 87.7447C95.7433 86.2076 99.3412 85.4752 103.01 85.6859L109.294 78.8537C112.125 75.7735 116.188 74.1287 120.363 74.3685L147.044 75.9008C148.654 70.2025 154.007 66.3907 159.916 66.73L169.088 67.2568C190.609 68.4928 210.631 77.8437 225.32 93.061C229.273 97.1568 232.845 101.675 235.95 106.58L241.891 115.949C245.018 120.692 249.918 123.985 255.496 125.075L260.411 125.939L282.445 129.803L291.122 131.322L306.362 133.994L321.696 136.683C326.58 137.54 331.475 135.261 333.962 130.977L349.267 104.63L351.761 100.329L361.618 104.088L360.299 108.638L351.317 139.681C350.7 141.805 352.039 144.004 354.217 144.436L365.02 146.553Z" fill="#FFD933"/>
        <path d="M292.684 155.902L272.092 155.715L260.411 125.94L282.445 129.803L292.684 155.902Z" fill="white"/>
        <path d="M315.04 156.109L300.793 155.979L291.122 131.322L306.362 133.994L315.04 156.109Z" fill="white"/>
        <path d="M244.876 161.639C243.101 162.795 241.416 164.119 239.854 165.595L230.244 174.64C220.403 183.897 207.194 188.704 193.703 187.929L104.681 182.816C96.295 182.335 88.0199 180.683 80.0897 177.93C41.7588 164.616 29.8891 153.718 33.6136 144.241L33.6202 144.235L39.0069 142.66C40.8467 142.127 42.7688 141.906 44.6844 142.016L51.5606 142.41C57.5195 142.753 63.2876 144.674 68.2623 147.984L96.7559 166.898C100.272 169.229 104.344 170.59 108.556 170.831L194.059 175.742C202.345 176.218 210.574 174.105 217.6 169.701L229.932 161.976C233.53 159.723 237.959 159.226 241.973 160.621L244.876 161.639Z" fill="white"/>
        <path d="M193.685 188.241L104.663 183.128C96.2741 182.647 87.9719 180.997 79.9872 178.225C52.6096 168.716 37.4408 160.049 33.6148 151.727C32.4413 149.176 32.3431 146.619 33.3232 144.126L33.3505 144.057L33.5323 143.935L38.919 142.36C40.809 141.813 42.7541 141.592 44.7022 141.704L51.5788 142.099C57.5942 142.444 63.4231 144.389 68.4355 147.723L96.9285 166.638C100.4 168.939 104.427 170.281 108.574 170.519L194.077 175.43C202.344 175.905 210.421 173.832 217.434 169.436L229.767 161.712C233.462 159.396 237.95 158.891 242.076 160.326L245.579 161.554L245.047 161.901C243.279 163.053 241.604 164.372 240.068 165.822L230.459 174.868C220.598 184.142 207.195 189.017 193.685 188.241ZM33.8517 144.493C32.9935 146.778 33.1046 149.123 34.1824 151.467C37.934 159.625 52.9838 168.184 80.1924 177.635C88.1226 180.388 96.368 182.026 104.699 182.505L193.721 187.617C207.061 188.383 220.295 183.57 230.03 174.413L239.639 165.367C241.049 164.036 242.574 162.813 244.18 161.726L241.871 160.916C237.923 159.544 233.633 160.027 230.098 162.241L217.766 169.966C210.643 174.431 202.438 176.536 194.041 176.054L108.538 171.143C104.281 170.899 100.147 169.521 96.5829 167.159L68.0893 148.244C63.1694 144.971 57.4473 143.062 51.5427 142.722L44.6662 142.328C42.7888 142.22 40.9144 142.432 39.0934 142.96L33.8517 144.493Z" fill="#212121"/>
        <g opacity="0.55">
            <path d="M87.4807 180.151C84.9882 179.513 82.5267 178.771 80.0897 177.93C41.7587 164.616 29.8891 153.718 33.6136 144.241C35.9374 138.333 44.3273 132.974 56.148 127.937C58.2916 127.021 60.2831 125.808 62.0578 124.339C62.071 124.327 62.0842 124.315 62.097 124.31L71.2006 122.873C71.2003 122.879 71.1937 122.885 71.1871 122.891C68.7575 125.844 65.6319 128.163 62.1022 129.669C50.2815 134.706 41.8917 140.065 39.5679 145.973C35.8434 155.45 47.713 166.348 86.0439 179.662C86.5228 179.827 87.0019 179.986 87.4807 180.151Z" fill="white"/>
        </g>
        <path d="M365.02 146.553L364.808 147.079L360.172 146.168C359.466 146.027 358.846 145.698 358.353 145.243L365.02 146.553Z" fill="#959AAF"/>
        <path d="M365.002 147.436L360.111 146.474C359.374 146.327 358.693 145.981 358.141 145.473L357.328 144.723L365.451 146.319L365.002 147.436Z" fill="#212121"/>
        <path d="M256.736 125.29L255.496 125.075C249.918 123.985 245.018 120.692 241.891 115.949L235.95 106.58C225.33 89.825 209.328 77.5185 190.916 71.4215C211.812 76.6846 230.154 89.7702 241.904 108.312L247.845 117.681C250.05 121.031 253.143 123.657 256.736 125.29Z" fill="#959AAF"/>
        <g opacity="0.55">
            <path d="M224.391 99.8564C205.786 89.2785 175.911 84.7143 144.493 80.9692L117.812 79.4368C114.13 79.2254 110.534 80.4775 107.797 82.8933L109.294 78.8537C112.125 75.7735 116.188 74.1288 120.363 74.3685L141.222 75.5665C141.222 75.5665 144.02 75.796 147.206 76.0166C151.178 76.301 155.744 76.5821 156.197 76.4266C157.008 76.1477 192.584 83.0363 192.584 83.0363L214.707 90.7924C218.155 93.5447 221.393 96.5729 224.391 99.8564Z" fill="white"/>
        </g>
        <g opacity="0.3">
            <path d="M346.99 149.618L346.291 155.243L265.144 154.495C257.855 154.427 250.753 156.536 244.736 160.485C242.96 161.642 241.275 162.966 239.713 164.441L230.104 173.486C220.263 182.744 207.053 187.55 193.563 186.776L104.541 181.663C96.1547 181.181 87.8796 179.529 79.9494 176.776C42.5144 163.777 30.3202 153.079 33.2346 143.756C38.6771 150.692 52.4405 158.375 77.5625 167.105C85.4927 169.858 93.7678 171.51 102.154 171.991L191.176 177.104C204.666 177.879 217.876 173.072 227.717 163.809L237.326 154.77C238.888 153.294 240.573 151.97 242.349 150.814C248.366 146.865 255.468 144.75 262.757 144.824L346.575 149.757L346.99 149.618Z" fill="#212121"/>
        </g>
        <g opacity="0.55">
            <path d="M333.181 132.147L331.411 136.046C328.924 140.329 324.029 142.608 319.145 141.752L252.945 130.143C247.367 129.053 242.467 125.76 239.34 121.017L233.399 111.649C230.724 107.426 227.701 103.483 224.391 99.8564C221.393 96.5728 219.282 92.3527 215.834 89.6004C202.253 78.7352 184.345 73.3479 166.537 72.3251L157.365 71.7983C153.409 71.5711 149.709 73.2054 147.206 76.0166C144.02 75.796 141.222 75.5665 141.222 75.5665L147.044 75.9008C148.654 70.2025 154.007 66.3907 159.916 66.73L169.088 67.2568C196.406 68.8257 221.301 83.4647 235.95 106.58L241.891 115.949C245.018 120.692 249.918 123.985 255.496 125.075L321.696 136.684C326.115 137.457 330.544 135.664 333.181 132.147Z" fill="white"/>
        </g>
        <path d="M181.49 50.4653L180.906 60.636C179.08 58.3025 175.764 56.6471 172.285 56.0593L172.279 56.059C170.643 55.771 168.961 55.7307 167.389 55.9659C164.807 56.3435 162.508 57.4635 161.095 59.4984L161.706 48.8597C161.804 47.1437 162.734 45.5694 164.211 44.6901C165.359 44.0048 166.692 43.5744 168.112 43.3678C169.685 43.1326 171.366 43.1791 173.009 43.4612C175.266 43.8413 177.453 44.6743 179.207 45.8456C180.739 46.8663 181.595 48.6308 181.49 50.4653Z" fill="#959AAF"/>
        <path d="M160.719 60.5867L161.394 48.8416C161.499 47.0014 162.493 45.3491 164.051 44.4216C165.196 43.7381 166.548 43.2796 168.067 43.0587C169.62 42.826 171.348 42.8584 173.062 43.153C175.369 43.5419 177.614 44.4057 179.381 45.5857C180.986 46.6555 181.914 48.5322 181.802 50.4832L181.17 61.481L180.659 60.8283C178.945 58.6369 175.795 56.9692 172.233 56.3675C170.6 56.0812 168.944 56.049 167.435 56.2748C164.724 56.6711 162.621 57.8473 161.352 59.6763L160.719 60.5867ZM170.415 55.5277C171.053 55.5644 171.696 55.6389 172.334 55.7514C175.72 56.3227 178.758 57.8309 180.638 59.8439L181.178 50.4474C181.277 48.7165 180.456 47.0529 179.034 46.1056C177.339 44.9735 175.18 44.144 172.957 43.7693C171.307 43.486 169.649 43.4539 168.159 43.6768C166.72 43.8861 165.446 44.3169 164.371 44.9583C162.991 45.7799 162.111 47.2446 162.018 48.8773L161.463 58.5345C162.85 57.0078 164.862 56.0193 167.344 55.6565C168.324 55.51 169.362 55.4673 170.415 55.5277Z" fill="#212121"/>
        <g opacity="0.55">
            <path d="M173.009 43.4613L172.285 56.0592L172.279 56.0589L167.389 55.9658L168.112 43.3678C169.685 43.1326 171.366 43.1791 173.009 43.4613Z" fill="white"/>
        </g>
        <path d="M160.987 61.3704C160.819 61.3607 160.65 61.3281 160.484 61.2709C159.69 60.9975 159.174 60.2291 159.223 59.3907L159.834 48.7521C159.969 46.3961 161.247 44.2753 163.252 43.0794C168.465 39.9698 175.901 41.3798 180.251 44.2847C182.313 45.662 183.505 48.0713 183.362 50.5727L182.777 60.7435C182.733 61.5229 182.209 62.1931 181.464 62.4258C180.72 62.6596 179.908 62.4049 179.428 61.7897C177.485 59.3006 173.146 57.5773 169.103 57.6924C167.397 57.7412 164.289 58.179 162.635 60.5658C162.257 61.1125 161.627 61.4068 160.987 61.3704ZM170.556 53.9671C173.721 54.1489 176.816 55.1406 179.254 56.6991L179.618 50.3577C179.686 49.1776 179.13 48.0456 178.169 47.4035C174.307 44.8239 168.478 44.3296 165.173 46.2997C164.238 46.8577 163.641 47.8549 163.577 48.9672L163.214 55.2982C164.859 54.4717 166.817 54.006 168.996 53.9442C169.516 53.9291 170.037 53.9373 170.556 53.9671Z" fill="#212121"/>
        <path d="M170.615 65.5798C169.766 65.5311 168.928 65.4389 168.117 65.3083C165.842 64.9404 160.427 63.6922 159.303 60.0509C159.133 59.501 159.225 58.9036 159.554 58.4305C161.475 55.6561 164.829 54.0626 168.996 53.9438C174.298 53.7928 179.679 56.0178 182.384 59.4821C182.894 60.1366 182.914 61.049 182.432 61.7246C180.229 64.813 175.267 65.847 170.615 65.5798ZM163.44 59.6438C164.284 60.3497 166.05 61.1757 168.716 61.606C172.488 62.2145 176.183 61.766 178.21 60.5657C175.983 58.7565 172.442 57.5967 169.103 57.6923C167.645 57.7339 165.163 58.0598 163.44 59.6438Z" fill="#212121"/>
        <g opacity="0.55">
            <path d="M361.618 104.088L360.299 108.638L349.267 104.631L351.761 100.329L361.618 104.088Z" fill="white"/>
        </g>
        <path d="M180.906 60.636C177.263 65.7418 162.483 63.9977 161.095 59.4982C165.19 53.5858 176.812 55.3927 180.906 60.636Z" fill="#212121"/>
        <path d="M170.675 64.0157C169.885 63.9704 169.109 63.8854 168.367 63.7657C165.17 63.2492 161.503 61.8813 160.796 59.5904L160.751 59.445L160.837 59.3201C162.469 56.9646 165.383 55.6101 169.04 55.5059C173.797 55.3685 178.776 57.4006 181.152 60.4437L181.295 60.6273L181.16 60.8174C179.31 63.4103 174.805 64.2529 170.675 64.0157ZM161.442 59.5478C162.065 61.1513 164.791 62.5551 168.466 63.1485C172.801 63.8475 178.349 63.3497 180.51 60.6422C178.193 57.8498 173.529 56.0016 169.058 56.1306C165.672 56.227 162.975 57.4389 161.442 59.5478Z" fill="#212121"/>
        <path d="M164.844 65.761L164.989 63.2377C165.109 61.1549 166.894 59.5632 168.977 59.6829L171.834 59.8469C173.916 59.9666 175.508 61.752 175.388 63.835L175.231 66.5775" fill="#959AAF"/>
        <path d="M175.543 66.5952L174.919 66.5594L175.076 63.817C175.186 61.9094 173.723 60.2683 171.816 60.1588L168.959 59.9947C167.051 59.8852 165.41 61.3481 165.301 63.2556L165.156 65.7789L164.532 65.7431L164.677 63.2198C164.806 60.9682 166.743 59.2414 168.994 59.3707L171.852 59.5348C174.103 59.6642 175.83 61.6013 175.7 63.8529L175.543 66.5952Z" fill="#212121"/>
        <path d="M175.123 68.4492C174.089 68.3898 173.3 67.5036 173.359 66.4698L173.516 63.7274C173.577 62.6799 172.774 61.7789 171.726 61.7187L168.869 61.5546C167.821 61.4945 166.921 62.2978 166.86 63.3452L166.716 65.8685C166.656 66.9023 165.77 67.6923 164.736 67.6329C163.702 67.5735 162.912 66.6873 162.972 65.6535L163.117 63.1302C163.295 60.0182 165.972 57.6321 169.084 57.8108L171.941 57.9749C175.053 58.1536 177.439 60.8306 177.26 63.9425L177.103 66.6848C177.043 67.7186 176.157 68.5086 175.123 68.4492Z" fill="#212121"/>
        <path d="M141.648 113.935L133.163 138.94C131.972 142.446 129.156 145.039 125.75 146.033C124.56 146.378 123.299 146.531 122.007 146.456L120.74 146.384C120.335 146.36 119.93 146.325 119.532 146.27C117.015 145.957 114.603 145.117 112.443 143.81C111.802 143.422 111.182 142.992 110.589 142.526L98.433 132.901L91.3073 127.258L91.3014 127.252L88.0321 124.66C86.3916 123.357 84.3944 122.598 82.3041 122.478L77.5869 122.207C76.6384 122.153 75.6825 122.229 74.7502 122.439L61.1823 125.522C63.3415 124.006 65.2456 122.137 66.7972 119.972L84.9671 94.6412C86.988 91.8274 89.6145 89.5869 92.601 88.0556C92.7818 87.9595 92.9685 87.8701 93.1551 87.7806C96.3673 86.2435 99.9652 85.5111 103.634 85.7218L125.361 86.9696C128.662 87.1592 131.749 88.2318 134.366 89.9784C138.243 92.5612 141.084 96.612 142.066 101.42L142.344 102.801C143.107 106.507 142.868 110.349 141.648 113.935Z" fill="#0DD1FF"/>
        <path d="M121.989 146.768L120.723 146.696C120.277 146.67 119.874 146.632 119.49 146.58C116.924 146.26 114.497 145.418 112.281 144.077C111.635 143.687 111.001 143.248 110.395 142.772L87.8379 124.905C86.2423 123.638 84.3224 122.907 82.2865 122.79L77.5689 122.519C76.6433 122.466 75.7177 122.541 74.819 122.744L59.704 126.178L61.0029 125.266C63.1606 123.751 65.0247 121.908 66.5433 119.79L84.7132 94.459C86.7299 91.6516 89.4082 89.341 92.4589 87.7775C92.6387 87.6818 92.8291 87.5903 93.0202 87.4988C96.3155 85.9219 99.9915 85.1994 103.652 85.4096L125.379 86.6574C128.653 86.8455 131.821 87.9039 134.539 89.7182C138.611 92.4312 141.393 96.5647 142.372 101.357L142.65 102.739C143.424 106.496 143.18 110.403 141.943 114.036L133.458 139.04C132.263 142.563 129.414 145.289 125.837 146.333C124.582 146.696 123.287 146.843 121.989 146.768ZM77.6047 121.895L82.3223 122.166C84.4879 122.29 86.5292 123.068 88.2265 124.415L110.782 142.282C111.367 142.741 111.98 143.165 112.605 143.543C114.745 144.838 117.089 145.651 119.571 145.96C119.941 146.011 120.329 146.047 120.758 146.072L122.025 146.144C123.252 146.215 124.476 146.077 125.663 145.733C129.043 144.747 131.736 142.17 132.867 138.84L141.352 113.835C142.553 110.307 142.789 106.514 142.037 102.864L141.76 101.482C140.814 96.8526 138.126 92.8592 134.192 90.2383C131.566 88.4857 128.506 87.4632 125.343 87.2815L103.616 86.0337C100.061 85.8295 96.4899 86.531 93.2896 88.0624C93.1073 88.1498 92.9243 88.2374 92.7478 88.3315C89.7809 89.8521 87.1797 92.0961 85.2202 94.8234L67.0508 120.154C65.7762 121.932 64.2647 123.521 62.5457 124.892L74.6805 122.134C75.6372 121.919 76.6207 121.839 77.6047 121.895Z" fill="#212121"/>
        <g opacity="0.3">
            <path d="M141.648 113.935L133.163 138.94C131.558 143.668 126.993 146.743 122.007 146.456L120.74 146.384C117.04 146.171 113.493 144.822 110.589 142.526L107.343 139.955C108.866 140.468 110.457 140.785 112.086 140.878L113.352 140.951C118.338 141.237 122.903 138.163 124.508 133.435L132.993 108.43C134.213 104.844 134.453 101.001 133.689 97.2953L133.411 95.9146C132.766 92.7662 131.325 89.9414 129.316 87.6412C131.127 88.1584 132.828 88.951 134.366 89.9783C138.243 92.5611 141.084 96.6119 142.066 101.42L142.344 102.801C143.107 106.507 142.868 110.349 141.648 113.935Z" fill="#212121"/>
        </g>
        <g opacity="0.55">
            <path d="M141.031 98.0738C137.903 93.9 133.039 91.1667 127.579 90.8531L105.853 89.6053C102.184 89.3946 98.5858 90.127 95.3736 91.6641C92.1552 93.2009 89.3291 95.5364 87.1855 98.5247L69.1113 123.717L61.1823 125.522C63.3415 124.006 65.2456 122.137 66.7972 119.972L84.9671 94.6411C87.1107 91.6528 89.9367 89.3173 93.1551 87.7805C96.3673 86.2434 99.9652 85.511 103.634 85.7217L125.361 86.9696C132.374 87.3724 138.407 91.7692 141.031 98.0738Z" fill="white"/>
        </g>
        <g opacity="0.45">
            <path d="M113.691 143.882C113.05 143.494 112.43 143.064 111.837 142.598L99.6809 132.973L93.8489 88.1271C94.0297 88.0311 94.2164 87.9416 94.4031 87.8522C97.6153 86.3151 101.213 85.5827 104.882 85.7934L106.143 85.8658L113.691 143.882Z" fill="white"/>
        </g>
        <g opacity="0.45">
            <path d="M126.998 146.104C125.807 146.449 124.547 146.602 123.255 146.528L121.988 146.455C121.583 146.432 121.178 146.396 120.78 146.342L112.963 86.2575L119.252 86.6187L126.998 146.104Z" fill="white"/>
        </g>
        <path d="M105.575 85.8332L114.934 86.3707L88.1266 123.626L82.4591 122.517L75.8946 122.171L105.575 85.8332Z" fill="#FDDE55"/>
        <path d="M88.2631 123.972L82.3995 122.824L75.2632 122.451L105.434 85.5121L115.52 86.0914L88.2631 123.972ZM82.4759 122.205L87.9896 123.281L114.348 86.6501L105.716 86.1543L76.5265 121.892L82.4759 122.205Z" fill="#212121"/>
        <path d="M60.451 127.358L60.4443 127.358C59.4103 127.298 58.6205 126.412 58.6799 125.378C58.7393 124.344 59.6253 123.554 60.6593 123.614C61.6934 123.673 62.4867 124.56 62.4274 125.594C62.368 126.627 61.4851 127.417 60.451 127.358Z" fill="#212121"/>
        <path d="M225.32 93.061C224.981 94.281 224.669 95.0206 224.669 95.0206L207.409 87.7127L170.984 78.7156L147.044 75.9008C148.654 70.2025 154.007 66.3907 159.916 66.73L169.088 67.2568C190.609 68.4928 210.631 77.8437 225.32 93.061Z" fill="white"/>
        <path d="M87.3014 126.493C86.9577 126.473 86.6158 126.359 86.3159 126.143C85.4752 125.538 85.2838 124.367 85.8891 123.526L113.413 85.2754C114.017 84.4349 115.189 84.2437 116.029 84.8486C116.87 85.4536 117.061 86.6252 116.456 87.4659L88.9325 125.716C88.5439 126.257 87.9205 126.529 87.3014 126.493Z" fill="#212121"/>
        <path d="M75.6297 124.05C75.2324 124.027 74.8392 123.878 74.5149 123.598C73.7302 122.923 73.6423 121.739 74.3177 120.954L105.558 84.69C106.234 83.9053 107.419 83.8175 108.202 84.4934C108.987 85.1691 109.075 86.3531 108.399 87.1378L77.1592 123.402C76.763 123.861 76.1922 124.082 75.6297 124.05Z" fill="#212121"/>
        <path d="M236.955 110.486C236.413 110.455 235.889 110.19 235.545 109.717C222.571 91.8658 195.226 82.0132 146.881 77.771C145.85 77.6806 145.087 76.7707 145.177 75.7394C145.268 74.7075 146.183 73.942 147.21 74.0355C196.731 78.3811 224.91 88.7056 238.578 107.512C239.187 108.35 239.002 109.522 238.164 110.131C237.8 110.396 237.372 110.51 236.955 110.486Z" fill="#212121"/>
        <path d="M193.952 177.614L108.451 172.703C103.909 172.443 99.5056 170.975 95.716 168.459L67.2255 149.543C62.5313 146.426 57.0767 144.607 51.4506 144.284L44.5747 143.889C42.8685 143.791 41.1719 143.984 39.5323 144.463L34.1422 146.034C33.1468 146.324 32.1072 145.754 31.8171 144.759C31.527 143.765 32.0979 142.724 33.092 142.434L38.4821 140.862C40.5339 140.264 42.6557 140.023 44.7897 140.146L51.6656 140.541C57.9548 140.902 64.0524 142.934 69.3001 146.418L97.7907 165.334C101.027 167.483 104.787 168.737 108.666 168.96L194.167 173.87C202.108 174.326 209.867 172.335 216.608 168.112L228.934 160.388C233.038 157.817 238.015 157.256 242.588 158.853L245.494 159.866C246.471 160.207 246.988 161.277 246.647 162.255C246.306 163.232 245.238 163.749 244.259 163.407L241.353 162.394C237.863 161.175 234.06 161.603 230.926 163.566L218.599 171.29C211.196 175.928 202.674 178.115 193.952 177.614Z" fill="#212121"/>
        <path d="M159.684 102.166L172.8 104.484C175.553 104.971 177.623 107.304 177.72 110.098C178.384 129.089 171.954 151.896 163.091 167.954C161.131 171.504 157.328 173.633 153.28 173.4L140.335 172.657C136.36 172.428 133.899 168.258 135.584 164.649C144.368 145.832 151.416 124.681 152.708 107.547C152.973 104.046 156.227 101.554 159.684 102.166Z" fill="#FDDE55"/>
        <g opacity="0.55">
            <path d="M135.351 168.705C144.136 149.888 151.183 128.737 152.475 111.603C152.74 108.101 155.994 105.61 159.452 106.222L172.567 108.54C175.321 109.027 177.39 111.36 177.488 114.154C177.553 116.018 177.547 117.919 177.48 119.847C177.741 116.525 177.831 113.258 177.721 110.098C177.623 107.304 175.554 104.971 172.8 104.484L159.685 102.166C156.227 101.554 152.973 104.046 152.708 107.547C151.416 124.681 144.369 145.832 135.584 164.649C134.941 166.026 134.905 167.484 135.324 168.775C135.334 168.751 135.34 168.728 135.351 168.705Z" fill="white"/>
        </g>
        <g opacity="0.3">
            <path d="M143.5 145.662C142.119 149.439 140.62 153.203 139.036 156.912C138.986 156.14 139.113 155.352 139.462 154.608C140.833 151.669 142.188 148.68 143.5 145.662Z" fill="#263069"/>
            <path d="M138.807 158.243L138.724 156.932C138.668 156.063 138.822 155.236 139.18 154.475C140.619 151.388 141.977 148.38 143.214 145.538L143.794 145.77C142.447 149.452 140.943 153.242 139.323 157.036L138.807 158.243Z" fill="#212121"/>
        </g>
        <path d="M212.516 137.337C212.449 137.74 212.383 138.137 212.316 138.54C212.006 140.344 210.857 141.812 209.322 142.594C208.464 143.039 207.481 143.258 206.457 143.206L205.571 143.155C203.087 143.025 200.447 142.879 197.795 142.733C195.411 142.603 193.015 142.465 190.706 142.339C187.18 142.142 184.687 138.788 185.541 135.369C187.107 129.136 188.205 123.095 188.698 117.464C188.744 116.984 188.784 116.511 188.817 116.037C189.017 113.213 191.268 111.076 193.942 110.841C194.427 110.8 194.92 110.822 195.422 110.907L198.093 111.38L203.516 112.336L209.144 113.329C211.734 113.791 213.693 115.982 213.798 118.617C214.025 124.584 213.554 130.93 212.516 137.337Z" fill="#4CC7ED"/>
        <path d="M190.678 142.65C188.902 142.548 187.277 141.668 186.22 140.234C185.168 138.808 184.81 137.007 185.238 135.293C186.853 128.863 187.913 122.855 188.386 117.436C188.433 116.957 188.473 116.486 188.506 116.015C188.712 113.094 190.987 110.786 193.915 110.53C194.423 110.486 194.948 110.51 195.474 110.599L209.198 113.021C211.934 113.509 214 115.857 214.11 118.605C214.332 124.434 213.899 130.752 212.824 137.387L212.824 137.388L212.624 138.591C212.308 140.425 211.127 142.025 209.464 142.872C208.546 143.348 207.5 143.572 206.441 143.518L205.553 143.467C203.167 143.342 200.636 143.202 198.088 143.062L190.689 142.651C190.686 142.651 190.682 142.65 190.678 142.65ZM194.732 111.143C194.474 111.128 194.219 111.131 193.969 111.153C191.35 111.382 189.313 113.446 189.129 116.059C189.096 116.536 189.056 117.012 189.009 117.494C188.533 122.942 187.467 128.983 185.844 135.445C185.462 136.976 185.782 138.587 186.723 139.864C187.669 141.147 189.123 141.935 190.714 142.026C190.717 142.026 190.72 142.027 190.723 142.027L198.121 142.438C200.67 142.578 203.2 142.718 205.587 142.843L206.475 142.894C207.421 142.942 208.356 142.743 209.178 142.317C210.669 141.557 211.725 140.126 212.007 138.487L212.208 137.287C213.276 130.694 213.706 124.416 213.485 118.629C213.387 116.173 211.538 114.074 209.088 113.637L195.368 111.215C195.156 111.179 194.943 111.155 194.732 111.143Z" fill="#212121"/>
        <g opacity="0.3">
            <path d="M213.782 118.454C213.531 118.358 213.266 118.293 212.993 118.246L199.278 115.824C195.993 115.247 192.908 117.624 192.673 120.954C192.245 126.983 191.094 133.521 189.397 140.285C189.243 140.884 189.197 141.482 189.245 142.061C186.529 141.166 184.81 138.294 185.541 135.369C187.238 128.605 188.39 122.066 188.817 116.037C189.059 112.708 192.138 110.331 195.422 110.907L209.144 113.329C211.678 113.782 213.61 115.89 213.782 118.454Z" fill="#212121"/>
        </g>
        <path d="M227.262 121.529C231.171 126.374 234.246 131.958 236.486 138.279C237.371 140.776 235.434 143.374 232.789 143.222L225.37 142.796C223.331 142.679 221.773 140.931 221.891 138.892L222.807 122.933C222.939 120.639 225.819 119.741 227.262 121.529Z" fill="#0DD1FF"/>
        <path d="M232.772 143.534L225.352 143.108C223.145 142.981 221.452 141.082 221.579 138.874L222.495 122.915C222.563 121.73 223.305 120.769 224.432 120.408C225.572 120.041 226.751 120.396 227.505 121.333C231.418 126.183 234.539 131.849 236.781 138.175C237.233 139.45 237.018 140.857 236.207 141.938C235.399 143.014 234.115 143.611 232.772 143.534ZM225.445 120.899C225.15 120.882 224.868 120.924 224.623 121.003C223.937 121.223 223.182 121.85 223.119 122.951L222.203 138.91C222.096 140.773 223.525 142.377 225.388 142.484L232.807 142.91C233.941 142.975 235.025 142.471 235.707 141.563C236.393 140.649 236.574 139.461 236.192 138.384C233.973 132.125 230.887 126.52 227.019 121.726C226.563 121.16 225.985 120.93 225.445 120.899Z" fill="#212121"/>
        <g opacity="0.3">
            <path d="M227.011 126.081L226.094 142.042C226.078 142.317 226.094 142.581 226.136 142.84L225.368 142.796C223.334 142.679 221.776 140.93 221.893 138.89L222.809 122.935C222.941 120.639 225.822 119.74 227.259 121.531C227.856 122.267 228.426 123.02 228.976 123.79C227.956 124.013 227.082 124.845 227.011 126.081Z" fill="#212121"/>
        </g>
        <path d="M153.172 175.272L140.228 174.529C137.749 174.386 135.51 173.03 134.238 170.9C132.958 168.757 132.826 166.124 133.884 163.856C143.508 143.242 149.688 122.667 150.839 107.406C151.004 105.222 152.093 103.197 153.828 101.849C155.576 100.491 157.83 99.9336 160.011 100.319L173.126 102.638C176.747 103.278 179.466 106.388 179.595 110.033C180.231 128.258 174.397 151.349 164.732 168.86C162.432 173.026 157.894 175.543 153.172 175.272ZM158.881 103.956C157.896 103.9 156.914 104.2 156.128 104.811C155.215 105.52 154.665 106.542 154.578 107.688C153.377 123.614 147.234 144.125 137.283 165.442C136.743 166.599 136.807 167.887 137.458 168.977C138.101 170.054 139.189 170.713 140.443 170.785L153.387 171.528C156.678 171.717 159.843 169.958 161.45 167.047C170.81 150.088 176.461 127.76 175.847 110.164C175.78 108.277 174.362 106.664 172.474 106.331L159.359 104.012C159.2 103.984 159.04 103.965 158.881 103.956Z" fill="#212121"/>
        <g opacity="0.45">
            <path d="M205.571 143.155C203.087 143.025 200.447 142.879 197.795 142.733L188.698 117.464C188.744 116.984 188.784 116.511 188.817 116.037C189.017 113.212 191.268 111.076 193.942 110.841L205.571 143.155Z" fill="white"/>
        </g>
        <g opacity="0.45">
            <path d="M212.516 137.337C212.449 137.74 212.383 138.137 212.316 138.54C212.006 140.344 210.857 141.812 209.322 142.594L198.093 111.38L203.516 112.336L212.516 137.337Z" fill="white"/>
        </g>
        <path d="M190.591 144.211C188.345 144.082 186.291 142.968 184.957 141.155C183.631 139.353 183.18 137.078 183.723 134.913C185.457 127.993 186.543 121.598 186.949 115.904C187.099 113.797 188.142 111.842 189.811 110.54C191.489 109.232 193.65 108.694 195.75 109.063L209.466 111.486C212.925 112.097 215.534 115.065 215.67 118.544C215.912 124.816 215.407 131.65 214.166 138.856C213.52 142.608 210.161 145.283 206.353 145.077L206.354 145.077C201.42 144.812 195.79 144.504 190.599 144.211C190.596 144.211 190.594 144.211 190.591 144.211ZM194.643 112.703C193.733 112.651 192.85 112.925 192.117 113.497C191.272 114.156 190.765 115.106 190.69 116.171C190.268 122.082 189.148 128.694 187.361 135.824C187.091 136.901 187.316 138.034 187.977 138.933C188.647 139.843 189.678 140.402 190.806 140.467C190.807 140.467 190.809 140.467 190.81 140.467C195.997 140.76 201.625 141.067 206.555 141.333C206.555 141.333 206.555 141.333 206.556 141.333C208.464 141.436 210.147 140.097 210.471 138.219C211.667 131.271 212.155 124.7 211.922 118.689C211.855 116.961 210.548 115.485 208.814 115.179L195.097 112.756C194.946 112.729 194.794 112.712 194.643 112.703Z" fill="#212121"/>
        <path d="M232.682 145.094L225.263 144.668C222.195 144.491 219.843 141.852 220.019 138.784L220.935 122.826C221.04 121.009 222.225 119.475 223.953 118.92C225.699 118.361 227.568 118.922 228.721 120.352C232.745 125.339 235.952 131.16 238.254 137.653C238.881 139.423 238.583 141.375 237.457 142.875C236.334 144.372 234.549 145.201 232.682 145.094ZM225.349 122.457C225.251 122.451 225.164 122.47 225.1 122.49C224.919 122.549 224.699 122.692 224.679 123.041L223.763 138.999C223.705 140.003 224.475 140.866 225.478 140.924L232.897 141.35C233.516 141.385 234.085 141.121 234.457 140.625C234.833 140.124 234.929 139.497 234.719 138.906C232.56 132.814 229.56 127.363 225.803 122.706L225.803 122.706C225.656 122.525 225.492 122.465 225.349 122.457Z" fill="#212121"/>
        <path d="M121.275 148.292L120.009 148.22C115.904 147.984 112.028 146.511 108.802 143.962L86.2442 126.094C84.9005 125.028 83.2859 124.412 81.573 124.314L76.8554 124.043C76.0748 123.998 75.2947 124.062 74.5378 124.232L60.9739 127.314C60.101 127.514 59.2079 127.065 58.8447 126.247C58.4816 125.428 58.7477 124.467 59.4809 123.952C61.4947 122.538 63.2336 120.819 64.6498 118.844L82.8191 93.5122C85.1098 90.3195 88.1888 87.7403 91.7233 86.0527C95.2544 84.363 99.195 83.5886 103.117 83.8139L124.844 85.0617C133.884 85.5808 141.464 92.1383 143.279 101.008L143.558 102.395C144.386 106.417 144.125 110.607 142.799 114.503L134.314 139.506C132.445 145.013 127.083 148.626 121.275 148.292ZM77.0702 120.299L81.7878 120.57C84.2764 120.713 86.6228 121.607 88.574 123.156L111.129 141.021C113.746 143.089 116.891 144.285 120.224 144.476L121.49 144.549C125.62 144.786 129.434 142.217 130.763 138.301L139.248 113.297C139.248 113.297 139.249 113.296 139.249 113.296C140.36 110.031 140.579 106.521 139.883 103.143L139.604 101.754C138.131 94.5546 131.973 89.2275 124.629 88.8057L102.902 87.5579C99.6101 87.3688 96.3033 88.0183 93.3405 89.4361C90.3735 90.8528 87.7891 93.0181 85.8665 95.6985L67.6972 121.029C67.428 121.405 67.149 121.772 66.8605 122.132L73.7109 120.575C74.8122 120.327 75.9412 120.234 77.0702 120.299Z" fill="#212121"/>
        <path d="M193.596 189.801L104.573 184.688C96.0402 184.198 87.5959 182.52 79.4751 179.701C46.8235 168.36 31.4506 158.262 31.0948 147.924C30.8327 140.299 38.5598 133.4 55.4126 126.213C56.8502 125.599 58.2157 124.84 59.4709 123.954C59.6959 123.795 59.9514 123.689 60.2182 123.641L73.7108 120.575C74.8121 120.327 75.941 120.235 77.0701 120.299L81.7877 120.57C84.2763 120.713 86.6227 121.607 88.5739 123.156L111.129 141.021C113.746 143.09 116.891 144.285 120.224 144.476L121.49 144.549C125.62 144.786 129.434 142.217 130.763 138.302L139.248 113.297C140.359 110.031 140.579 106.521 139.883 103.143L139.604 101.754C138.13 94.5547 131.973 89.2276 124.629 88.8059L102.902 87.5581C102.179 87.5165 101.544 87.0619 101.272 86.3903C101 85.7187 101.139 84.9503 101.629 84.4169L107.913 77.5848C111.136 74.0782 115.714 72.2238 120.47 72.4969L145.728 73.9475C148.019 68.174 153.695 64.4951 160.023 64.8585L169.195 65.3853C197.051 66.9851 222.598 82.0101 237.533 105.577L243.474 114.945C246.291 119.217 250.81 122.249 255.856 123.236L322.019 134.837C326.106 135.556 330.256 133.625 332.34 130.036L350.139 99.388C350.601 98.5938 351.571 98.2496 352.429 98.5777L362.286 102.336C363.197 102.684 363.69 103.672 363.419 104.61L353.118 140.203C352.968 140.72 353.039 141.256 353.319 141.716C353.6 142.179 354.049 142.492 354.582 142.598L365.38 144.713C365.929 144.82 366.401 145.167 366.668 145.659C366.935 146.15 366.968 146.734 366.759 147.253L362.743 157.233C362.455 157.949 361.758 158.415 360.986 158.408L265.267 157.524C256.265 157.437 247.696 160.788 241.138 166.96L231.529 176.006C221.358 185.573 207.532 190.602 193.596 189.801ZM61.3183 127.236C59.935 128.181 58.4447 128.996 56.8836 129.662C42.062 135.983 34.6461 142.084 34.8426 147.795C35.1303 156.145 50.5607 165.688 80.7052 176.159C88.4986 178.864 96.6014 180.474 104.789 180.945L193.811 186.057C206.724 186.799 219.535 182.14 228.959 173.274L238.568 164.229C245.834 157.391 255.328 153.677 265.303 153.774L359.742 154.646L362.434 147.957L353.857 146.276C352.299 145.967 350.937 145.016 350.115 143.664C349.295 142.315 349.077 140.673 349.517 139.158L359.337 105.225L352.582 102.649L335.584 131.92C332.714 136.861 327.002 139.521 321.372 138.53L255.173 126.922C249.109 125.738 243.711 122.116 240.325 116.981L234.366 107.585C220.076 85.0356 195.633 70.6597 168.981 69.129L159.808 68.6022C154.737 68.3109 150.23 71.5222 148.848 76.411C148.609 77.2572 147.814 77.8234 146.936 77.773L120.255 76.2407C116.626 76.0322 113.133 77.4472 110.674 80.1231L107.07 84.041L124.844 85.0618C133.884 85.5809 141.464 92.1384 143.279 101.008L143.558 102.395C144.386 106.418 144.125 110.607 142.799 114.503L134.315 139.507C132.445 145.013 127.083 148.626 121.275 148.292L120.009 148.22C115.904 147.984 112.028 146.511 108.802 143.962L86.2442 126.094C84.9005 125.028 83.2859 124.412 81.573 124.314L76.8554 124.043C76.0748 123.998 75.2947 124.062 74.5379 124.232L61.3183 127.236Z" fill="#263069"/>
        <path d="M193.596 189.801L104.573 184.688C96.0402 184.198 87.5959 182.52 79.4751 179.701C46.8235 168.36 31.4506 158.262 31.0948 147.924C30.8327 140.299 38.5598 133.4 55.4126 126.213C56.8502 125.599 58.2157 124.84 59.4709 123.954C59.6959 123.795 59.9514 123.689 60.2182 123.641L73.7108 120.575C74.8121 120.327 75.941 120.235 77.0701 120.299L81.7877 120.57C84.2763 120.713 86.6227 121.607 88.5739 123.156L111.129 141.021C113.746 143.09 116.891 144.285 120.224 144.476L121.49 144.549C125.62 144.786 129.434 142.217 130.763 138.302L139.248 113.297C140.359 110.031 140.579 106.521 139.883 103.143L139.604 101.754C138.13 94.5547 131.973 89.2276 124.629 88.8059L102.902 87.5581C102.179 87.5165 101.544 87.0619 101.272 86.3903C101 85.7187 101.139 84.9503 101.629 84.4169L107.913 77.5848C111.136 74.0782 115.714 72.2238 120.47 72.4969L145.728 73.9475C148.019 68.174 153.695 64.4951 160.023 64.8585L169.195 65.3853C197.051 66.9851 222.598 82.0101 237.533 105.577L243.474 114.945C246.291 119.217 250.81 122.249 255.856 123.236L322.019 134.837C326.106 135.556 330.256 133.625 332.34 130.036L350.139 99.388C350.601 98.5938 351.571 98.2496 352.429 98.5777L362.286 102.336C363.197 102.684 363.69 103.672 363.419 104.61L353.118 140.203C352.968 140.72 353.039 141.256 353.319 141.716C353.6 142.179 354.049 142.492 354.582 142.598L365.38 144.713C365.929 144.82 366.401 145.167 366.668 145.659C366.935 146.15 366.968 146.734 366.759 147.253L362.743 157.233C362.455 157.949 361.758 158.415 360.986 158.408L265.267 157.524C256.265 157.437 247.696 160.788 241.138 166.96L231.529 176.006C221.358 185.573 207.532 190.602 193.596 189.801ZM61.3183 127.236C59.935 128.181 58.4447 128.996 56.8836 129.662C42.062 135.983 34.6461 142.084 34.8426 147.795C35.1303 156.145 50.5607 165.688 80.7052 176.159C88.4986 178.864 96.6014 180.474 104.789 180.945L193.811 186.057C206.724 186.799 219.535 182.14 228.959 173.274L238.568 164.229C245.834 157.391 255.328 153.677 265.303 153.774L359.742 154.646L362.434 147.957L353.857 146.276C352.299 145.967 350.937 145.016 350.115 143.664C349.295 142.315 349.077 140.673 349.517 139.158L359.337 105.225L352.582 102.649L335.584 131.92C332.714 136.861 327.002 139.521 321.372 138.53L255.173 126.922C249.109 125.738 243.711 122.116 240.325 116.981L234.366 107.585C220.076 85.0356 195.633 70.6597 168.981 69.129L159.808 68.6022C154.737 68.3109 150.23 71.5222 148.848 76.411C148.609 77.2572 147.814 77.8234 146.936 77.773L120.255 76.2407C116.626 76.0322 113.133 77.4472 110.674 80.1231L107.07 84.041L124.844 85.0618C133.884 85.5809 141.464 92.1384 143.279 101.008L143.558 102.395C144.386 106.418 144.125 110.607 142.799 114.503L134.315 139.507C132.445 145.013 127.083 148.626 121.275 148.292L120.009 148.22C115.904 147.984 112.028 146.511 108.802 143.962L86.2442 126.094C84.9005 125.028 83.2859 124.412 81.573 124.314L76.8554 124.043C76.0748 123.998 75.2947 124.062 74.5379 124.232L61.3183 127.236Z" fill="#212121"/>
        <path d="M369.331 152.113C367.722 157.446 364.153 161.216 360.91 161.309L360.241 161.27C360.037 161.25 359.826 161.205 359.625 161.145C358.247 160.73 357.198 159.596 356.543 158.009C355.497 155.531 355.425 151.937 356.538 148.247C357.319 145.645 358.569 143.422 360.022 141.808C361.371 140.304 362.894 139.334 364.382 139.1L366.253 139.208C369.781 140.279 371.163 146.055 369.331 152.113Z" fill="#959AAF"/>
        <path d="M360.223 161.582C359.994 161.56 359.766 161.514 359.534 161.444C358.106 161.013 356.971 159.866 356.254 158.128C355.15 155.513 355.144 151.785 356.239 148.157C357.008 145.593 358.235 143.325 359.79 141.599C361.219 140.005 362.79 139.034 364.334 138.791L364.4 138.788L366.343 138.908C370.033 140.029 371.508 145.993 369.63 152.203L369.63 152.203C368.013 157.562 364.35 161.523 360.919 161.621L360.223 161.582ZM364.399 139.414C363.009 139.643 361.577 140.543 360.255 142.017C358.761 143.675 357.58 145.86 356.837 148.337C355.783 151.83 355.781 155.4 356.83 157.887C357.475 159.448 358.472 160.471 359.715 160.845C359.905 160.903 360.098 160.942 360.271 160.959L360.928 160.997C364.071 160.906 367.491 157.132 369.032 152.022L369.032 152.022C370.804 146.162 369.531 140.566 366.197 139.517L364.399 139.414Z" fill="#212121"/>
        <path d="M359.625 161.142C359.828 161.204 360.038 161.248 360.243 161.272L350.896 160.735C350.697 160.705 350.505 160.669 350.315 160.608C347.324 159.704 345.872 155.445 346.601 150.491C346.735 149.578 346.939 148.645 347.224 147.709C347.471 146.897 347.76 146.119 348.09 145.386C350.208 140.663 353.875 137.749 356.94 138.67L364.384 139.098C362.893 139.331 361.372 140.302 360.021 141.808C359.025 142.916 358.118 144.316 357.406 145.922C357.07 146.653 356.781 147.432 356.54 148.245C356.255 149.186 356.051 150.113 355.924 151.026C355.526 153.695 355.76 156.163 356.543 158.011C357.197 159.594 358.246 160.731 359.625 161.142Z" fill="#959AAF"/>
        <path d="M360.225 161.584L350.878 161.047C350.663 161.016 350.443 160.977 350.22 160.906C347.14 159.974 345.524 155.672 346.293 150.445C346.434 149.483 346.646 148.532 346.926 147.618C347.179 146.785 347.475 145.99 347.805 145.258C350.044 140.265 353.824 137.437 356.994 138.36L367.321 138.953L364.432 139.406C363.034 139.626 361.589 140.528 360.254 142.017C359.254 143.128 358.369 144.522 357.692 146.048C357.365 146.76 357.079 147.527 356.84 148.333C356.564 149.244 356.36 150.164 356.233 151.069C355.849 153.651 356.061 156.072 356.83 157.888C357.477 159.452 358.473 160.473 359.714 160.843L359.716 160.843C359.898 160.899 360.088 160.939 360.28 160.961L360.225 161.584ZM356.011 138.822C353.346 138.669 350.255 141.321 348.375 145.514C348.055 146.223 347.769 146.992 347.523 147.801C347.253 148.685 347.047 149.605 346.911 150.536C346.188 155.45 347.625 159.468 350.405 160.309C350.591 160.368 350.774 160.4 350.943 160.426L358.304 160.848C357.448 160.255 356.752 159.335 356.254 158.13C355.441 156.212 355.214 153.672 355.614 150.98C355.745 150.045 355.956 149.094 356.241 148.153C356.488 147.321 356.784 146.526 357.122 145.791C357.823 144.209 358.746 142.758 359.789 141.599C360.715 140.567 361.7 139.795 362.697 139.314L356.85 138.969C356.577 138.887 356.296 138.839 356.011 138.822Z" fill="#212121"/>
        <g opacity="0.55">
            <path d="M357.406 145.921C357.07 146.653 356.781 147.432 356.54 148.244C356.255 149.186 356.051 150.113 355.924 151.026L346.601 150.491C346.735 149.578 346.939 148.645 347.224 147.709C347.471 146.897 347.76 146.119 348.09 145.386L357.406 145.921Z" fill="white"/>
        </g>
        <path d="M360.803 163.181L360.133 163.142C360.108 163.141 360.083 163.139 360.058 163.136C359.74 163.105 359.412 163.039 359.083 162.94C357.217 162.377 355.699 160.88 354.81 158.724C353.555 155.752 353.528 151.731 354.743 147.706C355.577 144.924 356.921 142.45 358.629 140.554C360.299 138.691 362.188 137.547 364.091 137.248C364.223 137.227 364.356 137.221 364.49 137.228L366.361 137.336C366.509 137.344 366.656 137.37 366.798 137.413C371.388 138.807 373.288 145.502 371.126 152.655C369.291 158.735 365.112 163.065 360.964 163.183C360.91 163.184 360.856 163.184 360.803 163.181ZM360.397 159.401L360.926 159.431C363.058 159.31 366.09 156.363 367.536 151.571C367.536 151.571 367.536 151.57 367.536 151.57C369.125 146.313 367.953 141.909 365.885 141.064L364.5 140.985C363.519 141.199 362.432 141.929 361.418 143.06C360.095 144.529 359.001 146.561 358.334 148.786C357.381 151.944 357.357 155.118 358.27 157.279C358.595 158.068 359.182 159.053 360.166 159.349C360.27 159.381 360.349 159.395 360.397 159.401Z" fill="#212121"/>
        <path d="M381.588 156.997C380.854 159.429 380.001 161.826 379.045 164.184C378.089 166.542 377.016 168.856 375.832 171.124C374.645 173.39 373.347 175.613 371.882 177.748C370.45 179.912 368.823 181.957 367.066 183.972L367.065 183.972C367.099 184.012 366.987 183.887 367.14 184.062L367.137 184.064L367.131 184.07L367.119 184.081L367.095 184.103L367.047 184.146L366.952 184.233L366.754 184.4L366.359 184.735C366.096 184.959 365.834 185.183 365.557 185.393C365.018 185.827 364.459 186.239 363.888 186.638C362.741 187.431 361.54 188.161 360.273 188.795C357.735 190.038 354.914 190.914 351.946 191.018C351.897 191.02 351.847 191.02 351.799 191.017L351.78 191.016L349.255 190.876C348.256 190.767 347.35 190.563 346.465 190.263C344.693 189.696 343.029 188.804 341.577 187.678C340.11 186.565 338.862 185.224 337.799 183.787C336.735 182.349 335.849 180.806 335.134 179.214C333.69 176.054 332.795 172.687 332.278 169.323C331.751 165.952 331.618 162.555 331.762 159.186C332.049 152.442 333.448 145.813 335.645 139.48C337.883 133.152 341.008 127.092 345.213 121.739C347.33 119.082 349.698 116.585 352.451 114.453C353.828 113.392 355.291 112.418 356.862 111.591C357.253 111.383 357.654 111.187 358.057 110.998C358.473 110.806 358.908 110.622 359.343 110.463C360.216 110.141 361.111 109.883 362.02 109.704C365.649 108.976 369.46 109.348 372.862 110.785C374.563 111.495 376.149 112.478 377.57 113.66C378.975 114.856 380.208 116.285 381.145 117.863C382.959 120.923 384.108 124.229 384.827 127.563C385.523 130.909 385.696 134.308 385.5 137.647C385.311 140.99 384.751 144.272 384.066 147.489C383.355 150.704 382.53 153.867 381.588 156.997ZM381.088 156.846C382.96 150.627 383.426 144.025 382.813 137.691C382.514 134.522 381.996 131.408 381.201 128.413C380.426 125.419 379.274 122.546 377.66 120.06C376.881 118.871 375.916 117.844 374.841 116.936C373.742 116.058 372.52 115.324 371.207 114.804C368.587 113.768 365.643 113.464 362.885 114.015C362.196 114.149 361.522 114.344 360.868 114.584C360.538 114.704 360.223 114.836 359.899 114.985C359.566 115.141 359.235 115.302 358.907 115.476C357.595 116.164 356.336 116.997 355.133 117.921C352.727 119.773 350.582 122.033 348.628 124.45C344.755 129.327 341.789 134.975 339.661 140.903C337.562 146.855 336.216 153.096 335.918 159.369C335.767 162.502 335.878 165.643 336.342 168.71C336.799 171.78 337.582 174.765 338.833 177.54C340.06 180.286 341.767 182.788 344.009 184.535C345.121 185.416 346.362 186.093 347.689 186.532C348.341 186.766 349.034 186.918 349.652 186.992L352.002 187.142L351.836 187.139C354.123 187.081 356.429 186.413 358.599 185.376C359.682 184.847 360.731 184.223 361.747 183.536C362.254 183.189 362.753 182.829 363.238 182.445C363.486 182.262 363.724 182.063 363.961 181.864L364.319 181.567L364.498 181.418L364.586 181.341L364.629 181.302L364.651 181.282L364.661 181.272L364.667 181.267L364.669 181.265C364.824 181.438 364.714 181.312 364.749 181.35L364.75 181.35C366.777 180 368.612 178.324 370.301 176.502C371.968 174.659 373.512 172.677 374.856 170.557C376.211 168.444 377.401 166.219 378.442 163.925C379.481 161.63 380.357 159.26 381.088 156.846Z" fill="white"/>
        <path d="M360.133 163.142L350.788 162.605C350.735 162.602 350.683 162.597 350.631 162.59C350.42 162.56 350.097 162.507 349.753 162.399C345.172 161.011 343.266 154.319 345.431 147.169C347.556 140.137 352.706 135.649 357.247 136.812L364.49 137.228C365.447 137.283 366.208 138.051 366.255 139.008C366.302 139.965 365.62 140.803 364.674 140.952C363.649 141.113 362.492 141.862 361.418 143.06C360.095 144.529 359.001 146.561 358.334 148.786C357.381 151.944 357.357 155.118 358.27 157.279C358.595 158.068 359.183 159.053 360.166 159.349C360.166 159.35 360.166 159.35 360.167 159.35C360.292 159.387 360.381 159.4 360.424 159.404C361.44 159.504 362.189 160.397 362.11 161.415C362.031 162.433 361.153 163.201 360.133 163.142ZM351.088 158.866L354.97 159.089C354.914 158.97 354.861 158.848 354.81 158.724C353.555 155.752 353.528 151.731 354.743 147.705C355.564 144.968 356.879 142.527 358.549 140.643L356.833 140.544C356.686 140.536 356.542 140.51 356.401 140.468C354.221 139.812 350.654 142.85 349.02 148.255C347.385 153.655 348.676 158.155 350.856 158.816C350.931 158.839 351.015 158.855 351.088 158.866Z" fill="#212121"/>
        <g opacity="0.55">
            <path d="M62.097 124.31L71.2006 122.873C71.2003 122.879 71.1937 122.885 71.1871 122.891C68.5019 123.319 65.0208 123.871 62.0578 124.339C62.071 124.327 62.0842 124.315 62.097 124.31Z" fill="white"/>
            <path d="M61.0311 124.817L62.0482 124.001L71.535 122.504L71.5051 123.025L71.3228 123.186L71.2358 123.2C68.5506 123.628 65.0697 124.179 62.1064 124.648L61.0311 124.817Z" fill="#212121"/>
        </g>
        <path d="M143.712 51.4007L138.408 52.9708L133.093 54.4947C132.822 54.5725 132.54 54.4159 132.463 54.1455C132.429 54.0274 132.44 53.9073 132.485 53.8029L132.502 53.7646L135.284 47.3602L138.113 40.9787L139.205 42.3469C136.365 43.0843 133.517 43.7837 130.67 44.4887C127.822 45.1868 124.98 45.9149 122.126 46.5883L113.57 48.6343C110.72 49.3259 107.862 49.981 105.004 50.6379C104.189 50.8252 103.376 50.316 103.188 49.5007C103.088 49.0658 103.186 48.6319 103.423 48.2927L103.433 48.2795L110.512 38.2435L112.039 40.6816L101.918 42.3348C98.5462 42.8959 95.1692 43.4273 91.7895 43.9434L81.6522 45.5003L71.5032 46.9872L71.4515 46.9946C70.8701 47.0798 70.3298 46.6777 70.2446 46.0963C70.2014 45.801 70.2857 45.5136 70.4536 45.294L74.3874 40.173C75.6996 38.4663 77.0086 36.7575 78.34 35.0653L79.0824 36.1376C76.5365 36.7323 73.9954 37.3441 71.443 37.9143C68.8953 38.502 66.3385 39.0573 63.7815 39.6107C66.2639 38.7843 68.7467 37.9594 71.2382 37.1674C73.7252 36.3574 76.2234 35.589 78.7169 34.8039C79.0761 34.6909 79.4587 34.8906 79.5716 35.2495C79.6357 35.4528 79.5996 35.6638 79.491 35.8291L79.4596 35.8765C78.266 37.6689 77.0502 39.4451 75.8375 41.2232L72.1968 46.557L71.1474 44.8638L81.2267 42.9606L91.3179 41.1281C94.6811 40.5139 98.0468 39.9153 101.417 39.3465L111.525 37.6099C112.371 37.4644 113.175 38.0327 113.32 38.8789C113.394 39.3037 113.283 39.7226 113.052 40.048L105.906 50.037L104.335 47.6787C107.197 47.0423 110.059 46.4042 112.929 45.8024L121.534 43.9682C124.4 43.3484 127.278 42.7832 130.15 42.1882C133.023 41.5994 135.895 41.0057 138.776 40.4497L138.833 40.4386C139.353 40.3383 139.856 40.6783 139.957 41.1983C139.999 41.4174 139.963 41.634 139.868 41.818L136.678 48.0271L133.441 54.2134L132.849 53.4835L138.275 52.4192L143.712 51.4007Z" fill="white"/>
        <path d="M196.05 42.6802L201.354 41.1101L206.669 39.5859C206.939 39.5085 207.222 39.6647 207.299 39.9351C207.333 40.0532 207.322 40.1737 207.277 40.278L207.26 40.3162L204.478 46.7202L201.649 53.1018L200.557 51.7335C203.397 50.9964 206.245 50.2968 209.092 49.5921C211.94 48.894 214.782 48.1659 217.636 47.4922L226.192 45.4462C229.042 44.7548 231.9 44.0997 234.758 43.4429C235.573 43.2552 236.386 43.7644 236.574 44.5801C236.674 45.0147 236.575 45.4489 236.339 45.7877L236.329 45.8012L229.249 55.8369L227.722 53.3989L237.843 51.7456C241.216 51.1845 244.593 50.6534 247.972 50.1375L258.11 48.5803L268.259 47.0937L268.31 47.0861C268.892 47.0009 269.432 47.4033 269.517 47.9847C269.561 48.2801 269.476 48.5671 269.308 48.7871L265.374 53.9081C264.062 55.6145 262.754 57.3233 261.422 59.0157L260.68 57.9435C263.225 57.3485 265.767 56.7366 268.319 56.1667C270.867 55.5789 273.423 55.0238 275.98 54.4704C273.498 55.2965 271.015 56.1216 268.523 56.9137C266.037 57.7237 263.538 58.4917 261.045 59.2769C260.686 59.3901 260.303 59.1906 260.19 58.8317C260.126 58.628 260.162 58.4171 260.271 58.2519L260.302 58.2047C261.496 56.4123 262.711 54.6361 263.924 52.8576L267.565 47.5238L268.614 49.217L258.535 51.1202L248.444 52.9531C245.081 53.5669 241.715 54.1657 238.344 54.7345L228.237 56.4713C227.39 56.6167 226.586 56.0485 226.441 55.202C226.368 54.7775 226.478 54.3586 226.71 54.0332L233.856 44.0441L235.427 46.4022C232.565 47.0387 229.702 47.6771 226.832 48.2789L218.228 50.1128C215.362 50.7326 212.484 51.2979 209.612 51.8931C206.739 52.4816 203.867 53.0754 200.986 53.6316L200.928 53.6427C200.408 53.7431 199.906 53.4031 199.805 52.8831C199.763 52.6639 199.799 52.4471 199.894 52.263L203.084 46.0542L206.321 39.8676L206.912 40.5976L201.486 41.6619L196.05 42.6802Z" fill="white"/>
        <path d="M359.734 136.896C360.642 136.156 361.578 135.463 362.512 134.767C363.46 134.096 364.395 133.402 365.357 132.754L365.433 134.257C364.299 133.862 363.154 133.493 362.03 133.077C360.9 132.674 359.78 132.249 358.66 131.824C357.983 131.568 357.643 130.812 357.9 130.136C358.059 129.717 358.41 129.427 358.815 129.328L358.949 129.296C361.173 128.773 363.405 128.291 365.641 127.837C367.879 127.389 370.122 126.968 372.372 126.585L372.152 129.539C368.919 128.364 365.713 127.111 362.54 125.764L362.407 125.708C361.859 125.475 361.603 124.842 361.836 124.294C361.945 124.038 362.143 123.844 362.377 123.736C363.282 123.319 364.205 122.935 365.118 122.533C366.029 122.127 366.959 121.757 367.885 121.378L367.594 121.769C367.806 121.087 368.046 120.411 368.28 119.733C368.51 119.055 368.764 118.382 369.024 117.71C368.996 118.43 368.961 119.149 368.902 119.863C368.848 120.577 368.8 121.293 368.723 122.003C368.708 122.139 368.635 122.254 368.53 122.327L368.432 122.394C367.606 122.958 366.785 123.531 365.944 124.068C365.105 124.608 364.276 125.167 363.43 125.693L363.267 123.665C366.594 124.569 369.888 125.568 373.155 126.644C373.956 126.907 374.391 127.77 374.127 128.57C373.95 129.108 373.502 129.481 372.985 129.588L372.935 129.598C370.699 130.053 368.455 130.47 366.206 130.859C363.956 131.244 361.701 131.6 359.438 131.914L359.728 129.386C360.8 129.922 361.872 130.458 362.934 131.015C364.002 131.559 365.05 132.151 366.108 132.717L366.224 132.778C366.616 132.988 366.764 133.476 366.555 133.869C366.469 134.029 366.337 134.148 366.184 134.219C365.133 134.709 364.056 135.151 362.992 135.616C361.914 136.057 360.837 136.501 359.734 136.896Z" fill="white"/>
        <path d="M355.274 160.987C355.908 162.263 356.489 163.556 357.068 164.85C357.623 166.152 358.202 167.447 358.723 168.76C358.895 169.195 358.683 169.688 358.247 169.86C358.066 169.932 357.875 169.937 357.701 169.887L357.582 169.853C355.962 169.388 354.347 168.909 352.742 168.403C351.137 167.898 349.538 167.375 347.943 166.843L349.473 164.547C351.17 166.264 352.856 167.991 354.51 169.748C356.169 171.5 357.809 173.27 359.422 175.065L359.457 175.104C360.014 175.723 359.963 176.675 359.344 177.232C358.963 177.574 358.447 177.684 357.984 177.576C356.265 177.163 354.55 176.731 352.839 176.279C351.127 175.832 349.42 175.364 347.718 174.874L348.756 172.993C349.434 173.748 350.088 174.529 350.753 175.298C351.417 176.068 352.08 176.839 352.722 177.631L352.803 177.73C352.952 177.913 352.967 178.161 352.862 178.356C352.401 179.212 351.943 180.07 351.457 180.916C350.981 181.766 350.491 182.61 349.98 183.445C350.227 182.497 350.495 181.559 350.777 180.626C351.048 179.69 351.348 178.765 351.644 177.839L351.784 178.564C350.996 177.917 350.228 177.25 349.462 176.581C348.697 175.912 347.92 175.254 347.168 174.571C346.718 174.162 346.685 173.466 347.094 173.016C347.351 172.732 347.724 172.614 348.076 172.668L348.206 172.689C349.955 172.971 351.699 173.276 353.438 173.6C355.178 173.92 356.914 174.261 358.646 174.62L357.208 177.131C355.528 175.398 353.876 173.64 352.242 171.864C350.603 170.093 348.997 168.292 347.4 166.481L347.342 166.414C346.828 165.832 346.885 164.944 347.467 164.43C347.881 164.065 348.452 163.989 348.932 164.185C350.486 164.825 352.038 165.475 353.583 166.141C355.129 166.808 356.664 167.501 358.194 168.208L357.054 169.301C356.704 167.933 356.41 166.546 356.094 165.166C355.801 163.78 355.511 162.392 355.274 160.987Z" fill="white"/>
        <g opacity="0.3">
            <path d="M105.58 170.661L115.946 162.682C119.075 160.274 122.934 159.008 126.882 159.095L202.184 160.749C205.862 160.83 209.232 162.823 211.074 166.008L213.612 170.395L207.086 175.41L194.06 175.742L105.58 170.661Z" fill="#212121"/>
        </g>
    </g>
    <defs>
        <clipPath id="clip0_17_1252">
            <rect width="380" height="224" fill="white" transform="translate(12.8436) rotate(3.287)"/>
        </clipPath>
    </defs>
</svg>
